<?xml version="1.0" encoding="UTF-8"?>
<svg version="1.1" viewBox="0 0 2000 1500" width="1280" height="1280" xmlns="http://www.w3.org/2000/svg">
<path transform="translate(0)" d="m0 0h2e3v1500h-2e3z"/>
<path transform="translate(621,252)" d="m0 0h11l15 3 39-1h23l21 2 8 3 6 5 6 10 8 26 14 63 10 34 13 37 16 41 16 39 14 32 13 27 12 22 15 31 16 36 10 22 18 43 15 39 11 31 13 31 9 20 17 41 16 36 13 29 1 5h2l2-6 19-38 10-19 197-394 11-23 13-26 30-57 11-22 13-23 10-18 14-23 10-15 12-16 8-9 7-5 8-1 6 5 2 7v15l-3 20-5 25-4 25-2 25-2 68-1 82-1 206-2 83-3 77-3 56-2 28-1 24-1 72 1 100v47l-2 7-5 2h-10l-17 2h-13l-5-3-3-8-1-13v-105l1-109 1-28 4-55 3-59 2-54 1-39 1-93 3-100 1-36v-33l-11 19-12 23-10 19-17 35-17 34-10 19-119 238-11 23-25 51-14 29-13 27-13 28-16 35-13 30-13 28-8 14-3 3-5-2-8-11-14-23-11-21-15-34-14-34-15-39-10-28-14-29-11-22-12-22-17-32-10-18-15-28-20-39-10-19-15-30-15-36-14-37-10-25-13-33-4-11-3 71-2 68-2 175-1 99-1 150-1 83-3 7-3 3-7 2h-29l-35 2-10 1h-30l-8-3-5-5-2-8-1-83-2-103-1-62v-79l3-58 5-87 4-72 1-27 2-184v-188l2-20 3-11 5-5z" fill="#BB0557"/>
<path transform="translate(621,252)" d="m0 0h11l15 3 39-1h23l21 2 8 3 6 5 6 10 8 26 14 63 8 28-1 285-2 3-2-1-14-38-11-26-10-27-3 71-2 68-2 175-1 99-1 150-1 83-3 7-3 3-7 2h-29l-35 2-10 1h-30l-8-3-5-5-2-8-1-83-2-103-1-62v-79l3-58 5-87 4-72 1-27 2-184v-188l2-20 3-11 5-5z" fill="#E30952"/>
<path transform="translate(1392,264)" d="m0 0 7 1 4 4 2 7v15l-3 20-5 25-4 25-2 25-2 68-1 82-1 206-2 83-3 77-3 56-2 28-1 24-1 72 1 100v47l-2 7-5 2h-10l-17 2h-13l-5-3-3-8-1-13v-105l1-109 1-28 4-55 3-59 2-54 1-39 1-93 3-100 1-36v-33l-11 19-12 23-10 19-17 35-17 34-10 19-38 76-2-3-1-156-2-1 2-6 31-62 11-23 13-26 30-57 11-22 13-23 10-18 14-23 10-15 12-16 8-9 7-5z" fill="#7C0060"/>
<path transform="translate(1218,569)" d="m0 0 2 2 1 161-80 160-11 23-25 51-14 29-13 27-13 28-16 35-13 30-9 19-2-3-1-172-1-4 20-40 10-19 163-326z" fill="#9D025C"/>
</svg>
