<svg xmlns="http://www.w3.org/2000/svg" version="1.1" xmlns:xlink="http://www.w3.org/1999/xlink" xmlns:svgjs="http://svgjs.dev/svgjs" width="2000" height="2455" viewBox="0 0 2000 2455"><g transform="matrix(1,0,0,1,-4.310166760765355,-3.9596774193548754)"><svg viewBox="0 0 202 248" data-background-color="#000000" preserveAspectRatio="xMidYMid meet" height="2455" width="2000" xmlns="http://www.w3.org/2000/svg" xmlns:xlink="http://www.w3.org/1999/xlink"><g id="tight-bounds" transform="matrix(1,0,0,1,0.4353268428372985,0.4000000000000057)"><svg viewBox="0 0 201.12934631432543 247.2" height="247.2" width="201.12934631432543"><g><svg viewBox="0 0 201.12934631432543 247.2" height="247.2" width="201.12934631432543"><g><svg viewBox="0 0 201.12934631432543 247.2" height="247.2" width="201.12934631432543"><g id="textblocktransform"><svg viewBox="0 0 201.12934631432543 247.2" height="247.2" width="201.12934631432543" id="textblock"><g><svg viewBox="0 0 201.12934631432543 247.2" height="247.2" width="201.12934631432543"><g transform="matrix(1,0,0,1,0,0)"><svg width="201.12934631432543" viewBox="3.1 -35.95 29.25 35.95" height="247.2" data-palette-color="url(#c47db906-75c8-4265-891d-f64e15cb087c)"></svg></g></svg></g></svg></g></svg></g></svg></g><defs></defs><mask id="408f17d0-f130-4900-bdf4-60f37e28b723"><g id="SvgjsG3148"><svg viewBox="0 0 201.12934631432543 247.2" height="247.2" width="201.12934631432543"><g><svg viewBox="0 0 201.12934631432543 247.2" height="247.2" width="201.12934631432543"><g><svg viewBox="0 0 201.12934631432543 247.2" height="247.2" width="201.12934631432543"><g id="SvgjsG3147"><svg viewBox="0 0 201.12934631432543 247.2" height="247.2" width="201.12934631432543" id="SvgjsSvg3146"><g><svg viewBox="0 0 201.12934631432543 247.2" height="247.2" width="201.12934631432543"><g transform="matrix(1,0,0,1,0,0)"><svg width="201.12934631432543" viewBox="3.1 -35.95 29.25 35.95" height="247.2" data-palette-color="url(#c47db906-75c8-4265-891d-f64e15cb087c)"><path d="M4.2 0Q3.45 0 3.33-0.33 3.2-0.65 3.25-1.7L3.25-1.7Q3.25-3.35 3.2-4.85L3.2-4.85 3.1-11Q3.1-12.4 3.2-13.93 3.3-15.45 3.35-16.65L3.35-16.65Q3.6-20.25 3.6-21.7L3.6-21.7 3.7-31.1 3.65-33.8Q3.65-35.55 3.9-35.8L3.9-35.8Q4.05-35.95 4.25-35.95L4.25-35.95Q4.35-35.95 4.6-35.88 4.85-35.8 5.15-35.8L5.15-35.8 6.7-35.85Q7.65-35.85 8.1-35.75L8.1-35.75Q8.55-35.6 8.75-35.02 8.95-34.45 9.1-33.73 9.25-33 9.35-32.6L9.35-32.6Q9.6-31.25 10.53-28.85 11.45-26.45 12.3-24.65L12.3-24.65Q13-23.45 14.18-20.78 15.35-18.1 15.85-16.55L15.85-16.55Q16.15-15.75 16.7-14.55L16.7-14.55 17.45-12.75 18.5-10.4Q19.95-13.25 20.6-14.55L20.6-14.55 23.85-21.05 26.1-25.55Q27.85-29.15 28.45-30.2L28.45-30.2Q29.4-32.15 30.45-33.83 31.5-35.5 31.95-35.5L31.95-35.5Q32.35-35.5 32.35-34.85L32.35-34.85Q32.35-34.25 32.1-33.25L32.1-33.25 31.9-32Q31.7-30.65 31.7-20L31.7-20Q31.7-17.65 31.58-14.3 31.45-10.95 31.35-9.85L31.35-9.85Q31.25-8.55 31.25-6L31.25-6 31.3-1.15 31.3-0.9Q31.3-0.3 31-0.4L31-0.4 30.9-0.4Q30.65-0.4 30.33-0.35 30-0.3 29.65-0.3L29.65-0.3Q29.45-0.35 29.38-0.55 29.3-0.75 29.3-1.25L29.3-1.25 29.3-4.2Q29.3-9.3 29.4-10.2L29.4-10.2Q29.5-11.25 29.63-14.1 29.75-16.95 29.75-18.7L29.75-18.7Q29.7-19.15 29.8-21.5L29.8-21.5 29.85-23.3 29.95-26.9Q29.6-26.4 29.35-25.85L29.35-25.85Q28.85-25 28.4-24L28.4-24 27.9-23Q27.05-21.35 25.95-19.13 24.85-16.9 24.05-15.35L24.05-15.35Q23.15-13.55 21.78-10.73 20.4-7.9 19.65-6.25L19.65-6.25Q18.35-3.2 18.15-3.2L18.15-3.2Q18-3.2 17.7-3.7 17.4-4.2 17.3-4.35L17.3-4.35Q16.95-4.9 16.2-6.68 15.45-8.45 15-9.8L15-9.8Q14.7-10.7 12.4-14.85L12.4-14.85Q10.6-18.3 10.55-18.45L10.55-18.45Q10.05-19.45 9.2-21.8L9.2-21.8Q8.65-23.05 8.35-24L8.35-24 8.25-21.8 8.15-18.4 8.05-8.55 8-0.75Q8-0.3 7.75-0.2 7.5-0.1 7.15-0.13 6.8-0.15 6.6-0.15L6.6-0.15 5.5-0.1Q4.6 0 4.2 0L4.2 0Z" opacity="1" transform="matrix(1,0,0,1,0,0)" fill="white" class="wordmark-text-0" id="SvgjsPath3145"></path></svg></g></svg></g></svg></g></svg></g></svg></g><defs><mask></mask></defs></svg><rect width="201.12934631432543" height="247.2" fill="black" stroke="none" visibility="hidden"></rect></g></mask><linearGradient x1="0" x2="1" y1="0.5" y2="0.5" id="c47db906-75c8-4265-891d-f64e15cb087c"><stop stop-color="#f00b51" offset="0"></stop><stop stop-color="#730062" offset="1"></stop></linearGradient><rect width="201.12934631432543" height="247.2" fill="url(#c47db906-75c8-4265-891d-f64e15cb087c)" mask="url(#408f17d0-f130-4900-bdf4-60f37e28b723)" data-fill-palette-color="primary"></rect></svg><rect width="201.12934631432543" height="247.2" fill="none" stroke="none" visibility="hidden"></rect></g></svg></g></svg>